<?xml version="1.0" encoding="utf-8"?>
<!-- Generator: Adobe Illustrator 16.0.0, SVG Export Plug-In . SVG Version: 6.00 Build 0)  -->
<!DOCTYPE svg PUBLIC "-//W3C//DTD SVG 1.1//EN" "http://www.w3.org/Graphics/SVG/1.1/DTD/svg11.dtd">
<svg version="1.1" id="Layer_1" xmlns="http://www.w3.org/2000/svg" xmlns:xlink="http://www.w3.org/1999/xlink" x="0px" y="0px"
	 width="1000px" height="1000px" viewBox="0 0 1000 1000" enable-background="new 0 0 1000 1000" xml:space="preserve">
<g>
	<path fill="#2BB673" d="M363.411,431.478c0,55.229,44.772,100,100,100s99.998-44.771,99.998-100H363.411z"/>
	<ellipse fill="#92278F" cx="463.41" cy="433.728" rx="190.909" ry="38.59"/>
	<ellipse fill="#EC008C" cx="463.411" cy="431.478" rx="190.909" ry="32.386"/>
	<path fill="#2BB673" d="M463.41,331.478c-55.228,0-100,44.771-100,100h200C563.41,376.249,518.639,331.478,463.41,331.478z"/>
	<path fill="#8DC63F" d="M473.91,332.025c-3.451-0.36-6.954-0.548-10.5-0.548c-55.228,0-100,44.771-100,100h21
		C384.41,379.795,423.618,337.273,473.91,332.025z"/>
	<ellipse fill="#F9ED32" cx="367.386" cy="447.875" rx="8.523" ry="5.352"/>
	<ellipse fill="#F9ED32" cx="563.41" cy="447.875" rx="8.523" ry="5.352"/>
	<ellipse fill="#F9ED32" cx="533.863" cy="447.875" rx="8.523" ry="5.352"/>
	<ellipse fill="#F9ED32" cx="500.386" cy="447.875" rx="8.523" ry="5.352"/>
	<ellipse fill="#F9ED32" cx="467.932" cy="447.875" rx="8.523" ry="5.352"/>
	<ellipse fill="#F9ED32" cx="432.158" cy="447.875" rx="8.523" ry="5.352"/>
	<ellipse fill="#F9ED32" cx="399.045" cy="447.875" rx="8.523" ry="5.352"/>
	<ellipse fill="#8DC63F" cx="423.635" cy="371.557" rx="22.197" ry="23.58"/>
</g>
<g>
</g>
<g>
</g>
<g>
</g>
<g>
</g>
<g>
</g>
<g>
</g>
</svg>
